Simulation
nRows=40
nColumns=15
endheader
time  TH_x TH_y TH_z SC_y  SC_z  SC_x  AC_y  AC_z  AC_x  GH_y  GH_z  GH_yy  EL_x  PS_y
8.6175  0.000000  0.000000  0.000000  -34.7222466733507  2.538646447331241  -7.334130947939931  41.30821499233293  12.660751685901651  4.017086808539247  107.15578350161529  4.938288477717586  -92.26454912628105  20.58527678972109  120.000000
8.67495  0.000000  0.000000  0.000000  -34.38932306057762  2.478810910047229  -7.6041589612994  40.81707444293078  12.480654252758978  3.699323379507454  98.69419254006772  5.534967861099749  -83.74098960785494  20.522193469566243  120.000000
8.7324  0.000000  0.000000  0.000000  -34.112060585454685  2.447956305534649  -7.8893458294031005  40.34847399527273  12.32524757842182  3.428267143684914  91.66191573747805  6.690688927477816  -76.38135424020638  20.62809195513804  120.000000
8.78985  0.000000  0.000000  0.000000  -33.955644459856856  2.5055178445071196  -8.13947680003044  39.91296623463308  12.180748765839981  3.2358130014302113  87.22212700681708  8.469013802543847  -71.38353639060202  20.884074592081625  120.000000
8.8473  0.000000  0.000000  0.000000  -33.973078492319026  2.7342576925325615  -8.312376465644244  39.52784459251767  12.04124859885714  3.1462851911566263  85.2639023582812  10.892523597968097  -68.73031670889246  21.231456944449768  120.000000
8.90475  0.000000  0.000000  0.000000  -34.19490697913619  3.2199881414227858  -8.365470671868252  39.20280287758596  11.902769999980363  3.1852961409801415  85.13793295437638  13.942268571598664  -67.90045690194721  21.599377361423553  120.000000
8.9622  0.000000  0.000000  0.000000  -34.62016563896691  4.028831687863221  -8.250370124786903  38.93497489580745  11.76128209774353  3.384573763774539  86.18617927759664  17.541503441932324  -68.37124508153893  21.927344678932517  120.000000
9.01965  0.000000  0.000000  0.000000  -35.21648331976719  5.186110305271346  -7.912063821939397  38.721639708426984  11.619320236845804  3.773290968570497  87.89336606661148  21.558263350140983  -69.75290128488813  22.176704541940243  120.000000
9.0771  0.000000  0.000000  0.000000  -35.93707388451965  6.688839213187788  -7.287933889108148  38.57399798222719  11.480745397767041  4.376131133710869  89.8877970654771  25.84066381020092  -71.77779802556294  22.334717996295627  120.000000
9.13455  0.000000  0.000000  0.000000  -36.74475700948443  8.510010582466313  -6.309564388646806  38.51527548844448  11.3487929435825  5.206647435584595  91.88349204910348  30.243462775093363  -74.23673223833345  22.40533320720494  120.000000
9.192  0.000000  0.000000  0.000000  -37.62984084283089  10.592670482608751  -4.911456201102818  38.573874801928156  11.225313196466262  6.260127531188807  93.64723132712126  34.63458655588702  -76.94350979855072  22.392445370850137  120.000000
9.24945  0.000000  0.000000  0.000000  -38.61407573122511  12.859013796616987  -3.036447269762747  38.77668175348765  11.10563559844721  7.518641420954563  95.00630054080557  38.89649373910545  -79.73418726203373  22.292722963905128  120.000000
9.3069  0.000000  0.000000  0.000000  -39.742907942807975  15.216987571972718  -0.6411171967806397  39.1468375676371  10.978595636574278  8.956552147248575  95.85080606882012  42.926871197394625  -82.46572841849799  22.096400460664277  120.000000
9.36435  0.000000  0.000000  0.000000  -41.07191365912544  17.567490661665566  2.2963343132040763  39.70531563900653  10.832249152942826  10.541891033023191  96.12839362561341  46.63909356674328  -85.0161746616995  21.793698722547212  120.000000
9.421800000000001  0.000000  0.000000  0.000000  -42.652609292485565  19.805964254966938  5.765070029763961  40.46757153112928  10.65773600537587  12.236192063827358  95.83682950564261  49.9645775637608  -87.28800424095624  21.386071890298574  120.000000
9.47925  0.000000  0.000000  0.000000  -44.52058273100691  21.819736256191344  9.70935933292762  41.43239202588043  10.445756002495175  13.9964176515077  95.01820292102643  52.8584493729933  -89.21189076313733  20.895035469796554  120.000000
9.5367  0.000000  0.000000  0.000000  -46.67312151500959  23.49741017298112  14.01668294240683  42.57788329184874  10.188741433913306  15.768963009660908  93.7479114406304  55.30177628138334  -90.74526093894957  20.359462381875534  120.000000
9.59415  0.000000  0.000000  0.000000  -49.049922982748754  24.751629418805308  18.514585757146094  43.86643514309443  9.88573319556071  17.48410160603511  92.12213920559873  57.302783953089595  -91.86748158858994  19.8242691630083  120.000000
9.6516  0.000000  0.000000  0.000000  -51.52803519508205  25.542807609786315  22.98606525910462  45.24236445308874  9.546483977353201  19.060887601034594  90.25783108337892  58.89251052264077  -92.57848165489708  19.330874727553535  120.000000
9.70905  0.000000  0.000000  0.000000  -53.9387187807799  25.89456627446364  27.197320719427687  46.628634527085275  9.189289275109694  20.41774301317994  88.29390853895673  60.11615474161645  -92.90045826409573  18.91019725900003  120.000000
9.7665  0.000000  0.000000  0.000000  -56.09638122918071  25.88863373088264  30.926176331071147  47.93202987025047  8.832920440491277  21.485134820672673  86.3867626564338  61.02126754460082  -92.88066148429876  18.581327691895837  120.000000
9.82395  0.000000  0.000000  0.000000  -57.83332184315128  25.64516527950337  33.98544746819749  49.05624728595742  8.492378521170195  22.21199594497858  84.69673544006974  61.64884840869292  -92.5903679468981  18.354063928790417  120.000000
9.8814  0.000000  0.000000  0.000000  -59.023404162647005  25.29369272215768  36.23383586285561  49.914848475636  8.18151103753287  22.56576589035858  83.36597854243038  62.027678453807916  -92.11554030317217  18.230096667882826  120.000000
9.93885  0.000000  0.000000  0.000000  -59.587054812143506  24.942580248770707  37.574683328288444  50.44489157280966  7.912684426172946  22.534120763529042  82.49824215471304  62.17614099356857  -91.543099854581  18.200316510373586  120.000000
9.9963  0.000000  0.000000  0.000000  -59.48341622882902  24.656576658660523  37.94741062938834  50.616653933013595  7.698696402225964  22.12512627656753  82.14364725350585  62.10595842608231  -90.94394846253003  18.24610805683271  120.000000
10.05375  0.000000  0.000000  0.000000  -58.70659690032916  24.450489359076247  37.32316049911071  50.43030233020777  7.557255827130653  21.361504301544773  82.291174259525  61.82025045771523  -90.35705467791921  18.33942215650905  120.000000
10.1112  0.000000  0.000000  0.000000  -57.28680619949209  24.286602002979297  35.708827586333975  49.91120314483756  7.51241352326784  20.27765310180319  82.8706099984533  61.31475658186745  -89.7744805402572  18.44886447583089  120.000000
10.16865  0.000000  0.000000  0.000000  -55.29654995406294  24.0757093754727  33.159200513503606  49.10841359157505  7.59087026667831  18.927667798388796  83.76427915506277  60.58065632929414  -89.13135102614159  18.546924274062423  120.000000
10.2261  0.000000  0.000000  0.000000  -52.85781576203127  23.692352826097174  29.78895893825839  48.08744530825586  7.817981714244116  17.388992496267747  84.82277104636758  59.602607205035255  -88.31277119070174  18.612433633146043  120.000000
10.28355  0.000000  0.000000  0.000000  -50.139385067588485  23.0096344533982  25.773666841106316  46.92300259927229  8.215828709482441  15.755081367706048  85.88080063315667  58.35862545581525  -87.17952748920618  18.632375624396428  120.000000
10.341000000000001  0.000000  0.000000  0.000000  -47.335827356734534  21.936369791856208  21.327405958703604  45.69111342322414  8.794696942758643  14.126132154047237  86.77335196964951  56.824265248330896  -85.60422622051229  18.608645771561353  120.000000
10.39845  0.000000  0.000000  0.000000  -44.63593887183829  20.44347952634032  16.663879955316055  44.459588702277564  9.548480468962655  12.596627755089559  87.34806605194008  54.977188553119035  -83.49916140498502  18.569177739446733  120.000000
10.4559  0.000000  0.000000  0.000000  -42.18486963201782  18.569536472489638  11.959640621938416  43.28244379583324  10.45222235643304  11.24882964979924  87.48266180891704  52.806250490446956  -80.83298439494737  18.573951029331585  120.000000
10.51335  0.000000  0.000000  0.000000  -40.0631597955603  16.404446792362585  7.337723861635219  42.19845830413067  11.467518166133948  10.14946208115282  87.09729549003372  50.32066122997531  -77.6273938915506  18.70434023522779  120.000000
10.5708  0.000000  0.000000  0.000000  -38.29805559432019  14.065476129957782  2.8733968169802564  41.2241046534886  12.553314904857038  9.342206071506807  86.14861574563973  47.55047679323484  -73.94045460917904  19.034795217614015  120.000000
10.62825  0.000000  0.000000  0.000000  -36.877361523159266  11.675527779743472  -1.3886878246806051  40.35870673339941  13.678380628274343  8.844642444427292  84.62387705815779  44.541852696036685  -69.84671298811593  19.598476833945313  120.000000
10.6857  0.000000  0.000000  0.000000  -35.767821857111386  9.346126514080712  -5.4149463483553815  39.595613391848715  14.819189021037403  8.656735379245697  82.5427708416175  41.35375867536545  -65.43443032370988  20.365522698255177  120.000000
10.74315  0.000000  0.000000  0.000000  -34.9252449188264  7.169862723358084  -9.170688289998429  38.93052185098256  15.958768585397552  8.765125986086108  79.95939143925473  38.04710494439854  -60.80389594913198  21.249776949015175  120.000000
10.8006  0.000000  0.000000  0.000000  -34.30422807783524  5.218811706562752  -12.616215286341744  38.36550720332693  17.082849163363083  9.144454594423646  76.96549320577732  34.674048673310224  -56.06914862003963  22.139500572618164  120.000000
10.85805  0.000000  0.000000  0.000000  -33.85904876746481  3.5366191229639825  -15.708197294990326  37.90688825385672  18.17956321198834  9.756046088326016  73.68996062864063  31.271432609022366  -51.35527662783316  22.928127528472046  120.000000
